<?xml version="1.0" standalone="no"?>
<!DOCTYPE svg PUBLIC "-//W3C//DTD SVG 20010904//EN"
 "http://www.w3.org/TR/2001/REC-SVG-20010904/DTD/svg10.dtd">
<svg version="1.0" xmlns="http://www.w3.org/2000/svg"
 width="260.000000pt" height="260.000000pt" viewBox="0 0 260.000000 260.000000"
 preserveAspectRatio="xMidYMid meet">
<metadata>
Created by potrace 1.11, written by Peter Selinger 2001-2013
</metadata>
<g transform="translate(0.000000,260.000000) scale(0.100000,-0.100000)"
fill="#000000" stroke="none">
<path d="M1066 2584 c-98 -18 -263 -72 -348 -115 -366 -182 -633 -541 -703
-943 -20 -115 -20 -337 0 -452 19 -105 71 -267 116 -356 182 -366 541 -633
943 -703 115 -20 337 -20 452 0 274 48 529 186 722 389 134 143 225 294 287
479 47 142 65 255 65 417 0 275 -68 502 -217 728 -189 287 -513 497 -857 557
-111 19 -352 19 -460 -1z m254 -469 c0 -117 -4 -185 -10 -185 -6 0 -10 68 -10
185 0 117 4 185 10 185 6 0 10 -68 10 -185z m-142 58 c59 -44 88 -161 57 -227
-32 -67 -140 -98 -205 -59 -82 48 -104 209 -37 270 49 45 136 52 185 16z m440
-10 c64 -47 77 -135 32 -223 -48 -93 -165 -107 -239 -27 -60 66 -21 232 63
268 33 14 115 4 144 -18z m-768 -150 c123 -183 123 -183 111 -183 -9 0 -211
291 -211 305 0 20 26 -12 100 -122z m1016 111 c-11 -29 -198 -295 -204 -290
-5 6 30 63 135 214 61 87 83 112 69 76z m119 -164 c18 -20 18 -22 -31 -72 -43
-44 -46 -50 -24 -45 14 3 54 8 90 12 57 6 67 4 83 -13 23 -25 18 -28 -68 -36
-108 -11 -102 -5 -116 -107 -6 -49 -16 -92 -21 -95 -6 -4 -17 1 -26 10 -15 15
-15 24 -1 108 9 51 15 95 13 97 -2 2 -27 -20 -57 -48 -54 -51 -54 -51 -72 -31
-19 21 -17 22 90 130 60 61 112 110 116 110 3 0 14 -9 24 -20z m-1301 -2 c28
-12 40 -39 38 -78 -2 -24 1 -25 42 -22 37 3 46 0 65 -23 39 -51 22 -106 -55
-174 l-47 -41 -106 111 c-58 62 -107 115 -109 119 -5 14 59 80 97 100 43 23
44 23 75 8z m829 -200 c21 -25 22 -86 2 -115 -15 -22 -71 -38 -99 -27 -25 9
-24 160 2 167 30 8 76 -4 95 -25z m-331 -58 c22 -66 24 -80 11 -80 -8 0 -17 9
-20 20 -4 14 -14 20 -35 20 -21 0 -31 -6 -35 -20 -3 -11 -12 -20 -20 -20 -8 0
-13 6 -11 13 3 6 15 42 27 80 31 93 49 91 83 -13z m120 23 l33 -58 3 58 c5 86
22 68 22 -23 0 -98 -16 -106 -57 -27 l-28 52 -3 -52 c-2 -38 -7 -53 -18 -53
-11 0 -14 17 -14 80 0 99 14 104 62 23z m-567 -183 c-2 -4 -83 25 -179 63 -96
39 -173 74 -170 78 2 4 83 -24 179 -63 96 -39 173 -74 170 -78z m1503 135
c-12 -12 -349 -142 -346 -134 4 13 330 148 341 142 5 -3 7 -7 5 -8z m-600
-132 c3 -10 -67 -13 -327 -13 -300 0 -354 4 -334 24 4 3 153 5 331 4 250 -2
326 -6 330 -15z m-1201 -95 c13 -12 23 -27 23 -35 0 -7 11 -19 23 -28 22 -14
28 -14 61 0 23 10 50 14 66 10 39 -9 78 -50 86 -91 3 -19 12 -34 19 -34 8 0
22 -11 33 -25 17 -21 25 -24 53 -18 18 3 45 12 59 20 71 37 165 -8 186 -91 3
-14 10 -26 15 -26 6 0 19 -16 30 -35 12 -19 27 -35 35 -35 7 0 21 -12 31 -27
36 -57 47 -56 63 5 7 26 14 41 17 35 6 -18 -27 -163 -38 -163 -5 0 -6 13 -3
30 8 36 -14 49 -57 33 -35 -13 -38 -2 -6 20 22 14 22 15 3 36 -21 23 -47 27
-77 11 -27 -15 -24 4 4 23 22 15 22 15 3 36 -30 33 -70 25 -74 -14 l-4 -30
-13 32 c-9 20 -23 35 -39 39 -14 3 -26 10 -26 15 0 13 24 11 45 -5 14 -10 26
-11 47 -4 33 12 32 11 13 48 -21 41 -53 60 -100 60 -49 0 -68 -11 -59 -33 7
-18 -11 -24 -21 -7 -10 17 -51 11 -69 -9 -14 -16 -16 -29 -11 -62 5 -29 4 -40
-4 -35 -6 4 -11 13 -11 21 0 37 -70 61 -98 33 -9 -9 -12 -8 -12 5 0 20 39 32
75 23 18 -5 27 -1 36 15 9 18 7 25 -16 48 -16 15 -29 21 -32 15 -2 -6 -10 -20
-18 -30 -20 -28 -29 -10 -10 20 33 50 1 120 -60 132 -49 9 -76 -9 -68 -46 3
-19 1 -30 -6 -30 -6 0 -11 9 -11 19 0 11 -10 27 -22 35 -21 15 -22 14 -39 -24
-10 -22 -23 -40 -29 -40 -14 0 -12 11 5 34 24 32 18 74 -14 107 -16 16 -39 29
-50 29 -12 0 -21 5 -21 11 0 18 61 2 87 -23z m1813 22 c0 -5 -9 -10 -21 -10
-11 0 -34 -13 -50 -29 -32 -33 -38 -75 -14 -107 17 -23 19 -34 5 -34 -6 0 -19
18 -29 40 -17 38 -18 39 -39 24 -12 -8 -22 -24 -22 -35 0 -10 -5 -19 -11 -19
-7 0 -9 11 -6 30 8 37 -19 55 -68 46 -61 -12 -93 -82 -60 -132 19 -30 10 -48
-10 -20 -8 10 -16 24 -18 30 -3 6 -16 0 -32 -15 -23 -23 -25 -30 -16 -48 9
-16 18 -20 36 -15 36 9 75 -3 75 -23 0 -13 -3 -14 -12 -5 -28 28 -98 4 -98
-33 0 -8 -5 -17 -11 -21 -8 -5 -9 6 -4 35 5 33 3 46 -11 62 -18 20 -59 26 -69
9 -10 -17 -28 -11 -21 7 9 22 -10 33 -59 33 -47 0 -79 -19 -100 -60 -19 -37
-20 -36 13 -48 21 -7 33 -6 47 4 21 16 45 18 45 5 0 -5 -12 -12 -26 -15 -16
-4 -30 -19 -39 -39 l-13 -32 -4 30 c-4 39 -44 47 -74 14 -19 -21 -19 -21 4
-36 27 -19 30 -38 3 -23 -30 16 -56 12 -77 -11 -19 -21 -19 -22 4 -36 32 -22
27 -33 -8 -20 -41 16 -66 0 -62 -39 6 -53 -15 -11 -32 63 -19 84 -19 83 -7 83
6 0 13 -20 17 -45 8 -59 31 -60 67 -2 10 15 24 27 31 27 8 0 23 16 35 35 11
19 24 35 30 35 5 0 12 12 15 26 21 83 115 128 186 91 14 -8 41 -17 59 -20 28
-6 36 -3 53 18 11 14 25 25 33 25 7 0 16 15 19 34 8 41 47 82 86 91 16 4 43 0
66 -10 33 -14 39 -14 61 0 12 9 23 21 23 28 0 15 37 51 60 60 25 9 50 8 50 -3z
m-1377 -47 c-7 -2 -19 -2 -25 0 -7 3 -2 5 12 5 14 0 19 -2 13 -5z m44 -40 c-3
-10 -5 -2 -5 17 0 19 2 27 5 18 2 -10 2 -26 0 -35z m40 0 c-3 -10 -5 -2 -5 17
0 19 2 27 5 18 2 -10 2 -26 0 -35z m61 40 c-9 -2 -19 -16 -21 -31 -4 -24 -4
-24 -6 6 -1 27 2 32 22 31 15 -1 17 -3 5 -6z m206 -2 c4 -5 -4 -7 -15 -4 -19
5 -21 3 -17 -20 3 -15 1 -27 -3 -27 -10 0 -12 44 -2 53 9 10 31 9 37 -2z m63
2 c-14 -4 -18 -12 -14 -29 2 -13 0 -24 -4 -24 -10 0 -12 44 -2 53 3 4 13 6 22
6 12 -1 11 -3 -2 -6z m87 -28 c5 -16 1 -20 -18 -20 -21 0 -22 2 -13 28 10 29
20 27 31 -8z m43 -12 c-3 -10 -5 -2 -5 17 0 19 2 27 5 18 2 -10 2 -26 0 -35z
m120 0 c-3 -10 -5 -2 -5 17 0 19 2 27 5 18 2 -10 2 -26 0 -35z m70 0 c-3 -10
-5 -2 -5 17 0 19 2 27 5 18 2 -10 2 -26 0 -35z m70 41 c-3 -3 -12 -4 -19 -1
-8 3 -5 6 6 6 11 1 17 -2 13 -5z m61 -1 c-9 -2 -19 -16 -21 -31 -4 -24 -4 -24
-6 6 -1 27 2 32 22 31 15 -1 17 -3 5 -6z m-643 -122 c-18 -7 -18 -8 -1 -18 21
-11 16 -43 -6 -43 -9 0 -9 3 2 10 12 8 12 11 -3 28 -18 20 -13 32 12 31 12 0
11 -2 -4 -8z m76 -23 c-5 -30 -6 -31 -9 -8 -2 14 -9 28 -16 32 -7 5 -3 8 10 8
18 0 20 -5 15 -32z m93 10 c14 -22 -12 -52 -37 -42 -17 6 -23 44 -10 58 11 11
35 3 47 -16z m70 13 c9 -14 -5 -42 -16 -35 -6 4 -14 0 -19 -7 -6 -10 -9 -4 -9
19 0 25 4 32 19 32 11 0 22 -4 25 -9z m43 -38 c-3 -10 -5 -2 -5 17 0 19 2 27
5 18 2 -10 2 -26 0 -35z m61 40 c-9 -2 -19 -16 -21 -31 -4 -24 -4 -24 -6 6 -1
27 2 32 22 31 15 -1 17 -3 5 -6z m69 1 c-3 -3 -12 -4 -19 -1 -8 3 -5 6 6 6 11
1 17 -2 13 -5z m-2 -32 c-3 -3 -11 0 -18 7 -9 10 -8 11 6 5 10 -3 15 -9 12
-12z m0 -22 c-3 -5 -12 -10 -18 -10 -7 0 -6 4 3 10 19 12 23 12 15 0z m-334
-183 c-8 -8 -11 -7 -11 4 0 20 13 34 18 19 3 -7 -1 -17 -7 -23z m275 -5 c-9
-8 -26 10 -26 26 1 15 2 15 15 -2 8 -11 13 -21 11 -24z m-136 -77 c0 -50 -4
-85 -10 -85 -6 0 -10 35 -10 85 0 50 4 85 10 85 6 0 10 -35 10 -85z m-424 29
c175 -50 340 -159 391 -257 l19 -38 43 61 c48 69 131 134 227 180 67 32 231
83 247 77 6 -2 -28 -13 -74 -25 -121 -33 -256 -101 -321 -163 -52 -51 -52 -51
-7 -16 98 76 257 145 369 161 28 4 13 -3 -41 -18 -108 -31 -191 -64 -247 -100
-67 -42 -45 -40 42 4 72 36 228 81 272 79 11 -1 -10 -7 -46 -15 -90 -20 -155
-42 -224 -76 -74 -37 -68 -47 9 -13 66 30 206 65 250 64 17 0 -2 -7 -42 -14
-39 -7 -95 -21 -125 -30 -64 -21 -172 -74 -165 -81 3 -3 28 6 56 20 63 32 201
66 261 65 38 -1 34 -3 -25 -10 -143 -18 -266 -67 -347 -138 -44 -39 -49 -41
-115 -41 -58 0 -70 3 -81 20 -38 62 -221 141 -367 159 -46 6 -57 9 -32 10 62
2 187 -28 265 -64 84 -39 88 -28 4 14 -73 36 -142 59 -234 75 -40 8 -59 14
-43 15 44 1 183 -34 250 -64 77 -34 83 -24 9 13 -68 34 -132 55 -224 77 -59
13 -60 14 -15 9 109 -13 337 -104 306 -124 -8 -5 -4 -12 14 -24 14 -9 24 -20
21 -24 -2 -4 4 -8 14 -8 10 0 16 4 14 8 -3 4 0 8 7 8 7 0 5 8 -6 20 -10 11
-23 20 -28 20 -6 0 -2 -10 9 -21 19 -22 19 -22 -3 -10 -27 14 -39 31 -21 31
24 1 -36 42 -117 81 -44 21 -120 50 -170 63 -49 14 -83 25 -74 25 35 2 180
-43 255 -79 82 -40 185 -121 180 -143 -1 -7 -1 -8 2 -4 2 4 11 2 20 -5 10 -8
7 0 -6 19 -61 86 -221 182 -377 224 -44 12 -82 23 -84 25 -10 9 22 3 105 -22z
m-331 -185 c-10 -30 -20 -60 -23 -67 -3 -8 17 -5 61 12 56 21 68 23 84 11 24
-18 13 -26 -77 -54 -56 -17 -85 -33 -116 -62 -39 -38 -41 -39 -57 -21 -16 17
-15 20 23 57 22 22 40 43 40 49 0 5 10 45 21 89 22 79 22 79 41 59 20 -19 20
-21 3 -73z m411 -20 c91 -23 184 -69 238 -120 39 -35 49 -39 96 -39 48 0 56 4
102 45 27 24 74 56 104 70 91 43 304 89 304 66 0 -6 -10 -12 -22 -15 -208 -37
-302 -73 -381 -145 -42 -39 -47 -41 -109 -41 -62 0 -67 2 -107 40 -74 70 -202
124 -332 138 -37 4 -64 12 -67 20 -5 16 68 8 174 -19z m1109 -65 c70 -77 87
-99 79 -112 -6 -9 -15 -17 -20 -19 -6 -2 -50 40 -98 93 -84 92 -87 97 -70 115
9 10 18 19 19 19 1 0 42 -43 90 -96z m-1255 -60 c0 -3 -18 -45 -41 -94 -22
-48 -39 -96 -37 -106 5 -26 47 -45 71 -32 11 5 37 49 59 96 22 48 41 88 43 90
2 2 13 -1 24 -8 20 -10 20 -13 -29 -111 -59 -117 -78 -130 -147 -104 -47 18
-73 47 -73 81 0 12 21 65 46 118 41 87 47 95 65 86 10 -6 19 -13 19 -16z
m1045 -9 c26 -25 31 -54 16 -84 -8 -14 -1 -24 37 -52 54 -40 61 -55 32 -64
-17 -5 -30 1 -54 24 -32 31 -59 38 -84 22 -11 -6 -9 -18 10 -55 19 -40 20 -48
8 -56 -8 -5 -18 -10 -21 -10 -3 0 -34 54 -68 119 l-61 119 33 21 c77 47 117
52 152 16z m-722 -95 c108 -16 117 -19 117 -38 0 -14 -7 -17 -40 -14 -22 2
-40 0 -40 -4 0 -5 -7 -52 -15 -104 -8 -52 -15 -98 -15 -102 0 -5 -11 -8 -25
-8 -24 0 -25 3 -20 33 32 195 32 195 -10 203 -25 4 -35 11 -35 25 0 11 3 19 6
19 3 0 38 -5 77 -10z m424 -127 l65 -123 -29 0 c-22 0 -31 6 -40 29 -10 27
-13 28 -50 22 -54 -10 -63 -18 -63 -52 0 -24 -4 -29 -26 -29 -19 0 -24 4 -21
18 3 9 13 72 23 140 l17 123 29 -3 c27 -3 36 -15 95 -125z"/>
<path d="M1035 2125 c-45 -44 -23 -170 35 -200 53 -27 120 13 120 73 0 122
-89 194 -155 127z"/>
<path d="M1482 2118 c-28 -31 -42 -71 -42 -123 0 -35 5 -48 26 -64 33 -26 85
-27 107 -3 25 27 47 87 47 127 0 74 -89 114 -138 63z"/>
<path d="M600 1885 l-24 -25 29 -30 c27 -29 29 -29 48 -13 31 28 39 51 27 73
-15 27 -52 25 -80 -5z"/>
<path d="M695 1795 l-30 -25 38 -37 c41 -42 55 -40 84 9 15 24 15 28 0 52 -22
33 -53 33 -92 1z"/>
<path d="M1430 1700 l0 -60 30 0 c24 0 33 6 41 27 11 30 4 74 -14 85 -7 4 -22
8 -34 8 -21 0 -23 -4 -23 -60z"/>
<path d="M1126 1728 c-10 -38 -7 -48 14 -48 17 0 19 4 14 28 -9 39 -20 47 -28
20z"/>
<path d="M1222 1278 c2 -12 10 -23 18 -23 22 0 19 39 -3 43 -15 3 -18 -1 -15
-20z"/>
<path d="M1300 1290 c0 -5 7 -10 15 -10 8 0 15 5 15 10 0 6 -7 10 -15 10 -8 0
-15 -4 -15 -10z"/>
<path d="M1402 808 c-17 -18 -32 -27 -32 -20 0 7 -4 10 -10 7 -5 -3 -10 -10
-10 -15 0 -11 28 -6 42 8 22 22 32 13 12 -10 l-19 -23 21 18 c13 10 29 15 40
11 14 -4 16 -3 5 4 -11 8 -9 12 9 22 12 6 19 14 17 17 -3 2 -18 -3 -34 -13
l-28 -18 19 22 c29 34 5 26 -32 -10z"/>
<path d="M1774 650 c-34 -13 -36 -25 -13 -64 23 -40 23 -40 49 -26 34 18 44
48 25 76 -16 25 -27 28 -61 14z"/>
<path d="M1470 508 c0 -13 -3 -41 -7 -62 l-6 -39 33 7 c19 3 35 8 37 10 5 5
-45 106 -52 106 -3 0 -5 -10 -5 -22z"/>
</g>
</svg>
